<?xml version="1.0" standalone="no"?>
<!DOCTYPE svg PUBLIC "-//W3C//DTD SVG 20010904//EN"
 "http://www.w3.org/TR/2001/REC-SVG-20010904/DTD/svg10.dtd">
<svg version="1.0" xmlns="http://www.w3.org/2000/svg"
 width="3474.000000pt" height="1472.000000pt" viewBox="0 0 3474.000000 1472.000000"
 preserveAspectRatio="xMidYMid meet">
<metadata>
Created by potrace 1.15, written by Peter Selinger 2001-2017
</metadata>
<g transform="translate(0.000000,1472.000000) scale(0.100000,-0.100000)"
fill="#000000" stroke="none">
<path d="M20894 13966 c-85 -20 -187 -64 -264 -115 -39 -26 -166 -145 -315
-296 -2718 -2741 -12408 -12548 -12441 -12591 -94 -120 -143 -253 -151 -409
-9 -167 33 -283 141 -390 106 -104 212 -141 381 -132 180 9 321 72 479 214 48
43 2837 2859 6198 6258 3361 3399 6113 6181 6117 6183 4 1 2808 -2768 6231
-6154 3424 -3387 6253 -6180 6287 -6208 66 -56 175 -114 263 -141 32 -10 105
-19 175 -22 106 -5 128 -3 184 17 219 74 348 277 328 514 -12 139 -59 265
-141 378 -22 32 -2788 2775 -6145 6095 -7000 6925 -6701 6631 -6782 6683 -33
21 -109 58 -167 82 -98 38 -115 42 -212 45 -64 1 -129 -3 -166 -11z"/>
<path d="M14115 13345 c-131 -24 -272 -98 -390 -206 -33 -31 -3005 -2712
-6605 -5959 -3600 -3247 -6576 -5933 -6615 -5969 -95 -90 -159 -170 -200 -252
-98 -194 -103 -408 -14 -565 34 -61 129 -153 187 -183 101 -51 280 -67 411
-35 101 24 236 94 321 165 41 35 3061 2757 6710 6050 4813 4342 6648 6003
6683 6050 165 222 197 512 78 698 -115 179 -316 252 -566 206z"/>
</g>
</svg>
