<?xml version="1.0" standalone="no"?>
<!DOCTYPE svg PUBLIC "-//W3C//DTD SVG 20010904//EN"
 "http://www.w3.org/TR/2001/REC-SVG-20010904/DTD/svg10.dtd">
<svg version="1.0" xmlns="http://www.w3.org/2000/svg"
 width="1929.000000pt" height="1441.000000pt" viewBox="0 0 1929.000000 1441.000000"
 preserveAspectRatio="xMidYMid meet">
<metadata>
Created by potrace 1.15, written by Peter Selinger 2001-2017
</metadata>
<g transform="translate(0.000000,1441.000000) scale(0.100000,-0.100000)"
fill="#000000" stroke="none">
<path d="M450 13904 c-186 -40 -350 -181 -402 -346 -17 -58 -18 -265 -18
-6588 0 -6511 0 -6528 20 -6593 50 -163 215 -302 406 -342 274 -58 560 80 657
317 l22 53 5 5928 5 5927 4405 -2826 c2423 -1555 4425 -2835 4450 -2846 151
-66 363 -11 513 132 152 144 224 329 207 532 -9 104 -47 195 -107 255 -21 21
-1879 1219 -4130 2663 l-4092 2625 8162 5 c7599 5 8166 6 8217 22 228 69 372
177 448 335 37 77 37 79 37 203 0 123 -1 126 -36 201 -83 173 -273 305 -495
344 -77 13 -1120 15 -9148 14 -7730 0 -9071 -3 -9126 -15z"/>
</g>
</svg>
