<?xml version="1.0" standalone="no"?>
<!DOCTYPE svg PUBLIC "-//W3C//DTD SVG 20010904//EN"
 "http://www.w3.org/TR/2001/REC-SVG-20010904/DTD/svg10.dtd">
<svg version="1.0" xmlns="http://www.w3.org/2000/svg"
 width="2725.000000pt" height="1472.000000pt" viewBox="0 0 2725.000000 1472.000000"
 preserveAspectRatio="xMidYMid meet">
<metadata>
Created by potrace 1.15, written by Peter Selinger 2001-2017
</metadata>
<g transform="translate(0.000000,1472.000000) scale(0.100000,-0.100000)"
fill="#000000" stroke="none">
<path d="M13404 13966 c-86 -20 -188 -64 -262 -115 -85 -58 -75 -47 -2644
-2646 l-2263 -2289 -5 2375 c-5 2258 -6 2376 -23 2402 -39 61 -133 109 -280
144 -113 28 -413 25 -526 -5 -160 -42 -260 -107 -281 -180 -6 -25 -10 -1015
-10 -2957 l-1 -2920 -3335 -3370 c-1834 -1853 -3358 -3401 -3388 -3440 -98
-129 -144 -250 -153 -405 -10 -168 33 -288 141 -395 107 -105 212 -141 381
-132 170 8 315 70 457 194 37 32 2826 2848 6198 6258 3372 3410 6135 6200
6140 6200 5 0 2809 -2769 6230 -6153 3422 -3384 6250 -6176 6285 -6205 68 -57
177 -115 265 -142 32 -10 105 -19 175 -22 106 -5 128 -3 184 17 261 88 383
346 306 645 -20 78 -72 186 -121 253 -31 42 -11461 11358 -12565 12440 -172
168 -325 309 -360 332 -33 21 -109 58 -167 82 -98 38 -115 42 -212 45 -64 1
-129 -3 -166 -11z"/>
</g>
</svg>
