
<svg viewBox="0 0 30 30" preserveAspectRatio="xMidYMid meet">
  <path
    d="M467 20784 c-31 -7 -72 -21 -90 -30 -153 -78 -280 -251 -327 -446
    -20 -83 -20 -129 -20 -9128 0 -8971 0 -9046 20 -9127 50 -211 198 -398 368
    -464 82 -32 252 -32 334 0 77 30 167 98 223 168 60 76 129 219 149 310 15 65
    16 900 16 9115 0 9016 0 9043 -20 9127 -30 124 -98 249 -184 335 -39 39 -94
    83 -122 98 -101 54 -232 70 -347 42z"
  />
  <path
    d="M3423 19259 c-196 -38 -375 -237 -433 -481 -20 -83 -20 -129 -20
    -9183 0 -8140 2 -9107 15 -9160 25 -93 73 -174 151 -251 80 -80 162 -126 258
    -143 84 -16 13618 -16 13702 0 97 18 179 63 258 143 118 118 166 236 166 408
    0 170 -48 287 -166 404 -80 80 -162 126 -258 143 -43 8 -1928 11 -6538 11
    l-6478 0 0 8773 c0 8745 0 8772 -20 8856 -30 124 -98 249 -184 335 -39 39 -94
    83 -122 98 -93 50 -223 69 -331 47z"
  />
</svg>
