<svg viewBox="0 0 30 30" preserveAspectRatio="xMidYMid meet">
  <path
    d="M483 19259 c-196 -38 -375 -237 -433 -481 -20 -83 -20 -129 -20
    -9128 0 -8973 0 -9046 20 -9127 47 -195 186 -384 340 -460 l55 -28 5560 0
    5560 0 65 31 c133 63 228 165 300 319 21 44 45 112 54 152 15 66 16 849 16
    9115 0 9016 0 9043 -20 9127 -42 175 -167 354 -300 429 -114 65 -280 78 -404
    32 -167 -63 -315 -249 -366 -462 -20 -83 -20 -129 -20 -8855 l0 -8773 -4875 0
    -4875 0 0 8773 c0 8745 0 8772 -20 8856 -30 124 -98 249 -184 335 -39 39 -94
    83 -122 98 -93 50 -223 69 -331 47z"
  />
</svg>
