<?xml version="1.0" standalone="no"?>
<!DOCTYPE svg PUBLIC "-//W3C//DTD SVG 20010904//EN"
 "http://www.w3.org/TR/2001/REC-SVG-20010904/DTD/svg10.dtd">
<svg version="1.0" xmlns="http://www.w3.org/2000/svg"
 width="1327.000000pt" height="587.000000pt" viewBox="0 0 1327.000000 587.000000"
 preserveAspectRatio="xMidYMid meet">

<g transform="translate(0.000000,587.000000) scale(0.100000,-0.100000)"
fill="#000000" stroke="none">
<path d="M2300 2945 l0 -2835 95 0 95 0 0 2835 0 2835 -95 0 -95 0 0 -2835z"/>
<path d="M1360 2940 l0 -1890 95 0 95 0 0 1890 0 1890 -95 0 -95 0 0 -1890z"/>
<path d="M8850 4154 c-257 -20 -475 -102 -661 -250 -190 -151 -316 -444 -350
-814 -27 -302 58 -674 200 -870 92 -127 234 -256 340 -309 85 -43 232 -89 339
-107 142 -23 364 -15 495 19 171 45 374 155 479 260 198 197 323 598 305 974
-8 143 -26 241 -72 380 -121 365 -327 569 -670 667 -130 37 -299 58 -405 50z
m205 -416 c65 -17 149 -64 206 -116 160 -147 260 -481 230 -770 -23 -221 -86
-377 -199 -491 -122 -124 -255 -177 -419 -169 -79 5 -102 10 -169 42 -93 44
-192 139 -241 232 -156 295 -164 729 -19 1031 40 83 92 137 173 180 137 73
302 96 438 61z"/>
<path d="M11210 4154 c-173 -14 -330 -69 -480 -170 -193 -129 -296 -299 -364
-604 -94 -424 -50 -834 125 -1170 88 -169 220 -282 417 -356 359 -134 726 -53
976 216 30 33 61 60 69 60 7 0 24 -26 37 -57 57 -140 129 -217 236 -254 91
-32 292 -34 397 -5 l67 18 0 190 c0 169 -2 189 -16 184 -37 -14 -123 -18 -158
-6 -62 20 -93 61 -111 146 -15 67 -17 131 -12 582 7 648 26 828 123 1170 l6
22 -195 0 -196 0 -27 -35 c-28 -38 -101 -200 -111 -247 -8 -40 -24 -33 -80 37
-65 81 -172 169 -251 206 -105 49 -317 84 -452 73z m305 -421 c139 -34 259
-120 309 -221 63 -125 99 -333 99 -562 -1 -291 -66 -532 -170 -632 -119 -115
-392 -167 -563 -109 -109 38 -203 104 -247 174 -96 153 -148 528 -108 787 19
125 38 189 88 284 54 104 135 190 226 239 121 66 220 76 366 40z"/>
<path d="M4313 4110 c-337 -23 -602 -137 -800 -343 -134 -140 -223 -296 -282
-494 -43 -148 -56 -234 -55 -383 2 -209 52 -410 147 -595 89 -172 195 -280
357 -363 180 -94 327 -131 546 -139 178 -7 294 9 462 62 139 44 244 107 349
208 163 156 238 294 290 529 14 64 18 123 17 263 -1 162 -3 190 -27 277 -50
183 -138 360 -259 519 l-68 89 280 0 280 0 0 190 0 190 -562 -1 c-310 -1 -614
-5 -675 -9z m238 -392 c34 -36 113 -157 148 -227 45 -89 107 -279 127 -391 26
-141 24 -340 -4 -455 -32 -126 -100 -262 -156 -312 -130 -115 -348 -169 -528
-132 -87 18 -207 81 -271 143 -91 87 -149 237 -178 461 -30 230 28 534 134
699 88 138 330 226 644 234 53 2 65 -1 84 -20z"/>
<path d="M5810 4032 l-165 -87 -3 -107 -3 -108 295 0 295 0 4 -682 c3 -667 4
-685 26 -768 31 -122 102 -262 162 -322 60 -60 178 -118 305 -150 75 -19 116
-23 259 -23 176 0 255 11 400 56 l65 20 0 184 c0 102 -3 185 -6 185 -3 0 -52
-10 -107 -22 -74 -15 -139 -21 -237 -22 -128 -1 -138 0 -186 26 -65 34 -127
104 -156 177 l-23 56 -3 643 -3 642 426 0 425 0 0 195 0 195 -802 0 -803 -1
-165 -87z"/>
<path d="M410 2945 l0 -945 95 0 95 0 0 945 0 945 -95 0 -95 0 0 -945z"/>
</g>
</svg>
